<mxfile host="Electron" modified="2023-04-22T05:57:13.056Z" agent="Mozilla/5.0 (X11; Linux x86_64) AppleWebKit/537.36 (KHTML, like Gecko) draw.io/21.2.1 Chrome/112.0.5615.87 Electron/24.1.2 Safari/537.36" etag="CAimC0p0upp2M13qty9s" version="21.2.1" type="device">
  <diagram name="第 1 页" id="Zavmjteh1IX9tXmuueel">
    <mxGraphModel dx="1133" dy="703" grid="1" gridSize="10" guides="1" tooltips="1" connect="1" arrows="1" fold="1" page="1" pageScale="1" pageWidth="827" pageHeight="1169" math="0" shadow="0">
      <root>
        <mxCell id="0" />
        <mxCell id="1" parent="0" />
        <mxCell id="3DaxIcs7LCstp_3bDFIm-23" style="edgeStyle=orthogonalEdgeStyle;rounded=0;orthogonalLoop=1;jettySize=auto;html=1;" edge="1" parent="1" source="3DaxIcs7LCstp_3bDFIm-1" target="3DaxIcs7LCstp_3bDFIm-2">
          <mxGeometry relative="1" as="geometry" />
        </mxCell>
        <mxCell id="3DaxIcs7LCstp_3bDFIm-1" value="1/2" style="ellipse;whiteSpace=wrap;html=1;fillColor=#ffe6cc;strokeColor=#d79b00;" vertex="1" parent="1">
          <mxGeometry x="100" y="120" width="40" height="40" as="geometry" />
        </mxCell>
        <mxCell id="3DaxIcs7LCstp_3bDFIm-24" style="edgeStyle=orthogonalEdgeStyle;rounded=0;orthogonalLoop=1;jettySize=auto;html=1;" edge="1" parent="1" source="3DaxIcs7LCstp_3bDFIm-2" target="3DaxIcs7LCstp_3bDFIm-3">
          <mxGeometry relative="1" as="geometry" />
        </mxCell>
        <mxCell id="3DaxIcs7LCstp_3bDFIm-2" value="2/1" style="ellipse;whiteSpace=wrap;html=1;fillColor=#ffe6cc;strokeColor=#d79b00;" vertex="1" parent="1">
          <mxGeometry x="100" y="180" width="40" height="40" as="geometry" />
        </mxCell>
        <mxCell id="3DaxIcs7LCstp_3bDFIm-25" style="edgeStyle=orthogonalEdgeStyle;rounded=0;orthogonalLoop=1;jettySize=auto;html=1;" edge="1" parent="1" source="3DaxIcs7LCstp_3bDFIm-3" target="3DaxIcs7LCstp_3bDFIm-4">
          <mxGeometry relative="1" as="geometry" />
        </mxCell>
        <mxCell id="3DaxIcs7LCstp_3bDFIm-3" value="1/2" style="ellipse;whiteSpace=wrap;html=1;fillColor=#ffe6cc;strokeColor=#d79b00;" vertex="1" parent="1">
          <mxGeometry x="100" y="240" width="40" height="40" as="geometry" />
        </mxCell>
        <mxCell id="3DaxIcs7LCstp_3bDFIm-26" style="edgeStyle=orthogonalEdgeStyle;rounded=0;orthogonalLoop=1;jettySize=auto;html=1;" edge="1" parent="1" source="3DaxIcs7LCstp_3bDFIm-4" target="3DaxIcs7LCstp_3bDFIm-5">
          <mxGeometry relative="1" as="geometry" />
        </mxCell>
        <mxCell id="3DaxIcs7LCstp_3bDFIm-4" value="2/1" style="ellipse;whiteSpace=wrap;html=1;fillColor=#ffe6cc;strokeColor=#d79b00;" vertex="1" parent="1">
          <mxGeometry x="100" y="300" width="40" height="40" as="geometry" />
        </mxCell>
        <mxCell id="3DaxIcs7LCstp_3bDFIm-5" value="1/3" style="ellipse;whiteSpace=wrap;html=1;fillColor=#ffe6cc;strokeColor=#d79b00;" vertex="1" parent="1">
          <mxGeometry x="100" y="360" width="40" height="40" as="geometry" />
        </mxCell>
        <mxCell id="3DaxIcs7LCstp_3bDFIm-27" style="edgeStyle=orthogonalEdgeStyle;rounded=0;orthogonalLoop=1;jettySize=auto;html=1;" edge="1" parent="1" source="3DaxIcs7LCstp_3bDFIm-6" target="3DaxIcs7LCstp_3bDFIm-7">
          <mxGeometry relative="1" as="geometry" />
        </mxCell>
        <mxCell id="3DaxIcs7LCstp_3bDFIm-6" value="1/1" style="ellipse;whiteSpace=wrap;html=1;fillColor=#dae8fc;strokeColor=#6c8ebf;" vertex="1" parent="1">
          <mxGeometry x="260" y="210" width="40" height="40" as="geometry" />
        </mxCell>
        <mxCell id="3DaxIcs7LCstp_3bDFIm-7" value="1/3" style="ellipse;whiteSpace=wrap;html=1;fillColor=#dae8fc;strokeColor=#6c8ebf;" vertex="1" parent="1">
          <mxGeometry x="260" y="270" width="40" height="40" as="geometry" />
        </mxCell>
        <mxCell id="3DaxIcs7LCstp_3bDFIm-12" value="" style="endArrow=classic;html=1;rounded=0;fillColor=#d5e8d4;strokeColor=#82b366;" edge="1" parent="1" source="3DaxIcs7LCstp_3bDFIm-1" target="3DaxIcs7LCstp_3bDFIm-6">
          <mxGeometry width="50" height="50" relative="1" as="geometry">
            <mxPoint x="70" y="340" as="sourcePoint" />
            <mxPoint x="120" y="290" as="targetPoint" />
          </mxGeometry>
        </mxCell>
        <mxCell id="3DaxIcs7LCstp_3bDFIm-14" value="" style="endArrow=classic;html=1;rounded=0;fillColor=#d5e8d4;strokeColor=#82b366;" edge="1" parent="1" source="3DaxIcs7LCstp_3bDFIm-1" target="3DaxIcs7LCstp_3bDFIm-7">
          <mxGeometry width="50" height="50" relative="1" as="geometry">
            <mxPoint x="230" y="120" as="sourcePoint" />
            <mxPoint x="356" y="190" as="targetPoint" />
          </mxGeometry>
        </mxCell>
        <mxCell id="3DaxIcs7LCstp_3bDFIm-15" value="" style="endArrow=classic;html=1;rounded=0;fillColor=#d5e8d4;strokeColor=#82b366;" edge="1" parent="1" source="3DaxIcs7LCstp_3bDFIm-3" target="3DaxIcs7LCstp_3bDFIm-6">
          <mxGeometry width="50" height="50" relative="1" as="geometry">
            <mxPoint x="145" y="164" as="sourcePoint" />
            <mxPoint x="275" y="286" as="targetPoint" />
          </mxGeometry>
        </mxCell>
        <mxCell id="3DaxIcs7LCstp_3bDFIm-16" value="" style="endArrow=classic;html=1;rounded=0;fillColor=#d5e8d4;strokeColor=#82b366;entryX=0;entryY=0.5;entryDx=0;entryDy=0;" edge="1" parent="1" source="3DaxIcs7LCstp_3bDFIm-3" target="3DaxIcs7LCstp_3bDFIm-7">
          <mxGeometry width="50" height="50" relative="1" as="geometry">
            <mxPoint x="155" y="174" as="sourcePoint" />
            <mxPoint x="285" y="296" as="targetPoint" />
          </mxGeometry>
        </mxCell>
        <mxCell id="3DaxIcs7LCstp_3bDFIm-17" value="" style="endArrow=classic;html=1;rounded=0;fillColor=#d5e8d4;strokeColor=#82b366;" edge="1" parent="1" source="3DaxIcs7LCstp_3bDFIm-5" target="3DaxIcs7LCstp_3bDFIm-6">
          <mxGeometry width="50" height="50" relative="1" as="geometry">
            <mxPoint x="165" y="184" as="sourcePoint" />
            <mxPoint x="295" y="306" as="targetPoint" />
          </mxGeometry>
        </mxCell>
        <mxCell id="3DaxIcs7LCstp_3bDFIm-18" value="" style="endArrow=classic;html=1;rounded=0;fillColor=#d5e8d4;strokeColor=#82b366;" edge="1" parent="1" source="3DaxIcs7LCstp_3bDFIm-5" target="3DaxIcs7LCstp_3bDFIm-7">
          <mxGeometry width="50" height="50" relative="1" as="geometry">
            <mxPoint x="175" y="194" as="sourcePoint" />
            <mxPoint x="305" y="316" as="targetPoint" />
          </mxGeometry>
        </mxCell>
        <mxCell id="3DaxIcs7LCstp_3bDFIm-19" value="" style="endArrow=classic;html=1;rounded=0;fillColor=#e1d5e7;strokeColor=#9673a6;" edge="1" parent="1" source="3DaxIcs7LCstp_3bDFIm-6" target="3DaxIcs7LCstp_3bDFIm-2">
          <mxGeometry width="50" height="50" relative="1" as="geometry">
            <mxPoint x="185" y="204" as="sourcePoint" />
            <mxPoint x="315" y="326" as="targetPoint" />
          </mxGeometry>
        </mxCell>
        <mxCell id="3DaxIcs7LCstp_3bDFIm-21" value="" style="endArrow=classic;html=1;rounded=0;fillColor=#e1d5e7;strokeColor=#9673a6;" edge="1" parent="1" source="3DaxIcs7LCstp_3bDFIm-6" target="3DaxIcs7LCstp_3bDFIm-4">
          <mxGeometry width="50" height="50" relative="1" as="geometry">
            <mxPoint x="270" y="236" as="sourcePoint" />
            <mxPoint x="150" y="214" as="targetPoint" />
          </mxGeometry>
        </mxCell>
        <mxCell id="3DaxIcs7LCstp_3bDFIm-22" value="" style="endArrow=classic;html=1;rounded=0;fillColor=#e1d5e7;strokeColor=#9673a6;entryX=1;entryY=0.5;entryDx=0;entryDy=0;exitX=0.276;exitY=0.951;exitDx=0;exitDy=0;exitPerimeter=0;" edge="1" parent="1" source="3DaxIcs7LCstp_3bDFIm-7" target="3DaxIcs7LCstp_3bDFIm-5">
          <mxGeometry width="50" height="50" relative="1" as="geometry">
            <mxPoint x="280" y="246" as="sourcePoint" />
            <mxPoint x="160" y="224" as="targetPoint" />
          </mxGeometry>
        </mxCell>
        <mxCell id="3DaxIcs7LCstp_3bDFIm-28" value="2/2" style="ellipse;whiteSpace=wrap;html=1;fillColor=#fad9d5;strokeColor=#ae4132;" vertex="1" parent="1">
          <mxGeometry x="40" y="150" width="40" height="40" as="geometry" />
        </mxCell>
        <mxCell id="3DaxIcs7LCstp_3bDFIm-29" value="1/1" style="ellipse;whiteSpace=wrap;html=1;fillColor=#fad9d5;strokeColor=#ae4132;" vertex="1" parent="1">
          <mxGeometry x="40" y="210" width="40" height="40" as="geometry" />
        </mxCell>
        <mxCell id="3DaxIcs7LCstp_3bDFIm-30" value="2/2" style="ellipse;whiteSpace=wrap;html=1;fillColor=#fad9d5;strokeColor=#ae4132;" vertex="1" parent="1">
          <mxGeometry x="40" y="270" width="40" height="40" as="geometry" />
        </mxCell>
        <mxCell id="3DaxIcs7LCstp_3bDFIm-31" value="1/1" style="ellipse;whiteSpace=wrap;html=1;fillColor=#fad9d5;strokeColor=#ae4132;" vertex="1" parent="1">
          <mxGeometry x="40" y="330" width="40" height="40" as="geometry" />
        </mxCell>
        <mxCell id="3DaxIcs7LCstp_3bDFIm-32" value="1/1" style="ellipse;whiteSpace=wrap;html=1;fillColor=#b0e3e6;strokeColor=#0e8088;" vertex="1" parent="1">
          <mxGeometry x="320" y="240" width="40" height="40" as="geometry" />
        </mxCell>
        <mxCell id="3DaxIcs7LCstp_3bDFIm-37" value="1/1" style="ellipse;whiteSpace=wrap;html=1;fillColor=#b0e3e6;strokeColor=#0e8088;" vertex="1" parent="1">
          <mxGeometry x="580" y="120" width="40" height="40" as="geometry" />
        </mxCell>
        <mxCell id="3DaxIcs7LCstp_3bDFIm-38" value="1/1" style="ellipse;whiteSpace=wrap;html=1;fillColor=#b0e3e6;strokeColor=#0e8088;" vertex="1" parent="1">
          <mxGeometry x="640" y="120" width="40" height="40" as="geometry" />
        </mxCell>
        <mxCell id="3DaxIcs7LCstp_3bDFIm-39" value="2/2" style="ellipse;whiteSpace=wrap;html=1;fillColor=#fad9d5;strokeColor=#ae4132;" vertex="1" parent="1">
          <mxGeometry x="520" y="180" width="40" height="40" as="geometry" />
        </mxCell>
        <mxCell id="3DaxIcs7LCstp_3bDFIm-40" value="1/1" style="ellipse;whiteSpace=wrap;html=1;fillColor=#fad9d5;strokeColor=#ae4132;" vertex="1" parent="1">
          <mxGeometry x="520" y="240" width="40" height="40" as="geometry" />
        </mxCell>
        <mxCell id="3DaxIcs7LCstp_3bDFIm-41" value="2/2" style="ellipse;whiteSpace=wrap;html=1;fillColor=#fad9d5;strokeColor=#ae4132;" vertex="1" parent="1">
          <mxGeometry x="520" y="300" width="40" height="40" as="geometry" />
        </mxCell>
        <mxCell id="3DaxIcs7LCstp_3bDFIm-42" value="1/1" style="ellipse;whiteSpace=wrap;html=1;fillColor=#fad9d5;strokeColor=#ae4132;" vertex="1" parent="1">
          <mxGeometry x="520" y="360" width="40" height="40" as="geometry" />
        </mxCell>
        <mxCell id="3DaxIcs7LCstp_3bDFIm-44" value="" style="ellipse;whiteSpace=wrap;html=1;aspect=fixed;fillColor=#bac8d3;strokeColor=#23445d;" vertex="1" parent="1">
          <mxGeometry x="590" y="250" width="20" height="20" as="geometry" />
        </mxCell>
        <mxCell id="3DaxIcs7LCstp_3bDFIm-45" value="" style="ellipse;whiteSpace=wrap;html=1;aspect=fixed;fillColor=#bac8d3;strokeColor=#23445d;" vertex="1" parent="1">
          <mxGeometry x="650" y="370" width="20" height="20" as="geometry" />
        </mxCell>
        <mxCell id="3DaxIcs7LCstp_3bDFIm-46" value="" style="shape=flexArrow;endArrow=classic;html=1;rounded=0;" edge="1" parent="1">
          <mxGeometry width="50" height="50" relative="1" as="geometry">
            <mxPoint x="400" y="260" as="sourcePoint" />
            <mxPoint x="480" y="260" as="targetPoint" />
          </mxGeometry>
        </mxCell>
      </root>
    </mxGraphModel>
  </diagram>
</mxfile>
